<svg width="31" height="30" viewBox="0 0 31 30" fill="none" xmlns="http://www.w3.org/2000/svg">
<g id="Instagram">
<path id="Vector" d="M10.6667 3.75C7.22044 3.75 4.41669 6.55375 4.41669 10V20C4.41669 23.4463 7.22044 26.25 10.6667 26.25H20.6667C24.1129 26.25 26.9167 23.4463 26.9167 20V10C26.9167 6.55375 24.1129 3.75 20.6667 3.75H10.6667ZM10.6667 6.25H20.6667C22.7342 6.25 24.4167 7.9325 24.4167 10V20C24.4167 22.0675 22.7342 23.75 20.6667 23.75H10.6667C8.59919 23.75 6.91669 22.0675 6.91669 20V10C6.91669 7.9325 8.59919 6.25 10.6667 6.25ZM21.9167 7.5C21.5852 7.5 21.2672 7.6317 21.0328 7.86612C20.7984 8.10054 20.6667 8.41848 20.6667 8.75C20.6667 9.08152 20.7984 9.39946 21.0328 9.63388C21.2672 9.8683 21.5852 10 21.9167 10C22.2482 10 22.5662 9.8683 22.8006 9.63388C23.035 9.39946 23.1667 9.08152 23.1667 8.75C23.1667 8.41848 23.035 8.10054 22.8006 7.86612C22.5662 7.6317 22.2482 7.5 21.9167 7.5ZM15.6667 8.75C12.2204 8.75 9.41669 11.5538 9.41669 15C9.41669 18.4462 12.2204 21.25 15.6667 21.25C19.1129 21.25 21.9167 18.4462 21.9167 15C21.9167 11.5538 19.1129 8.75 15.6667 8.75ZM15.6667 11.25C17.7342 11.25 19.4167 12.9325 19.4167 15C19.4167 17.0675 17.7342 18.75 15.6667 18.75C13.5992 18.75 11.9167 17.0675 11.9167 15C11.9167 12.9325 13.5992 11.25 15.6667 11.25Z" fill="#C7A17A"/>
</g>
</svg>
