<svg width="25" height="24" viewBox="0 0 25 24" fill="none" xmlns="http://www.w3.org/2000/svg">
<path id="Vector" d="M12.5 0C5.59625 0 0 5.26824 0 11.7673C0 16.7532 3.295 21.0106 7.945 22.7251C7.83625 21.7943 7.73625 20.3657 7.98875 19.3502C8.21625 18.4324 9.45375 13.5007 9.45375 13.5007C9.45375 13.5007 9.08 12.7958 9.08 11.7544C9.08 10.1176 10.0875 8.89729 11.3412 8.89729C12.4075 8.89729 12.9225 9.65158 12.9225 10.5541C12.9225 11.5638 12.24 13.0735 11.8875 14.4715C11.5925 15.6435 12.5113 16.5978 13.7388 16.5978C15.96 16.5978 17.6675 14.3926 17.6675 11.2096C17.6675 8.39247 15.5175 6.42262 12.4462 6.42262C8.89 6.42262 6.8025 8.93377 6.8025 11.5296C6.8025 12.5405 7.21625 13.6254 7.7325 14.215C7.835 14.3314 7.84875 14.4338 7.81875 14.5527C7.72375 14.9245 7.51375 15.7235 7.4725 15.8871C7.41875 16.1024 7.29125 16.1483 7.055 16.0436C5.49375 15.3587 4.5175 13.21 4.5175 11.4849C4.5175 7.77351 7.3825 4.36333 12.7775 4.36333C17.1138 4.36333 20.4837 7.27222 20.4837 11.1601C20.4837 15.2164 17.7675 18.4794 13.9975 18.4794C12.7312 18.4794 11.54 17.8593 11.1325 17.1285C11.1325 17.1285 10.505 19.3749 10.3538 19.9268C10.0712 20.9482 9.31 22.2309 8.8 23.0122C9.96875 23.3499 11.2113 23.5347 12.5 23.5347C19.4025 23.5347 25 18.2653 25 11.7673C25 5.26942 19.4037 0 12.5 0Z" fill="#C7A17A"/>
</svg>
